<?xml version="1.0" encoding="UTF-8" standalone="no"?>
<!DOCTYPE svg PUBLIC "-//W3C//DTD SVG 1.1//EN" "http://www.w3.org/Graphics/SVG/1.1/DTD/svg11.dtd">
<svg xmlns="http://www.w3.org/2000/svg" version="1.1" viewBox="0.00 0.00 537.00 145.00">
<g stroke-width="2.00" fill="none" stroke-linecap="butt">
<path stroke="#fd80a5" vector-effect="non-scaling-stroke" d="
  M 135.24 42.34
  A 12.73 12.73 0.0 0 0 122.51 29.61
  L 44.73 29.61
  A 12.73 12.73 0.0 0 0 32.00 42.34
  L 32.00 120.24
  A 12.73 12.73 0.0 0 0 44.73 132.97
  L 122.51 132.97
  A 12.73 12.73 0.0 0 0 135.24 120.24
  L 135.24 42.34"
/>
<path stroke="#f793b9" vector-effect="non-scaling-stroke" d="
  M 172.14 81.68
  C 177.91 81.65 186.06 81.49 188.19 74.75
  C 190.23 68.31 187.22 62.69 180.77 61.31
  C 175.97 60.28 170.99 60.59 166.08 60.67
  Q 164.98 60.69 164.98 61.78
  L 165.12 95.30
  A 1.16 1.16 0.0 0 0 166.30 96.46
  L 170.62 96.37
  Q 171.57 96.35 171.57 95.39
  L 171.48 82.35
  Q 171.48 81.69 172.14 81.68"
/>
<path stroke="#f793b9" vector-effect="non-scaling-stroke" d="
  M 307.58 72.56
  L 307.75 61.96
  Q 307.78 60.56 306.37 60.56
  L 302.44 60.59
  Q 301.35 60.59 301.35 61.68
  L 301.27 95.38
  Q 301.27 96.49 302.38 96.47
  L 306.70 96.40
  Q 307.85 96.39 307.80 95.24
  Q 307.54 88.68 307.90 82.53
  Q 308.34 75.16 315.72 76.80
  Q 316.97 77.08 317.31 78.31
  Q 317.98 80.74 318.02 83.31
  Q 318.13 89.67 317.90 95.23
  Q 317.85 96.43 319.04 96.44
  L 323.00 96.51
  Q 324.66 96.54 324.56 94.88
  Q 324.25 90.05 324.34 84.34
  C 324.44 77.14 322.76 70.18 314.08 70.82
  C 312.08 70.97 310.17 72.15 308.42 73.07
  Q 307.57 73.53 307.58 72.56"
/>
<path stroke="#f793b9" vector-effect="non-scaling-stroke" d="
  M 450.85 91.96
  C 453.22 97.12 458.79 97.68 463.64 95.99
  Q 464.23 95.78 464.63 95.31
  L 465.81 93.93
  Q 466.37 93.29 466.64 94.09
  Q 467.84 97.64 472.30 96.18
  Q 472.83 96.01 472.83 95.45
  Q 472.77 89.45 472.92 83.73
  C 473.07 78.27 471.37 72.73 465.50 71.22
  C 461.22 70.11 454.65 70.95 452.06 75.03
  A 1.25 1.25 0.0 0 0 451.99 76.27
  Q 453.01 78.32 454.88 79.06
  A 1.43 1.42 37.8 0 0 456.26 78.89
  C 457.47 78.01 458.32 76.94 459.82 76.53
  Q 464.76 75.18 466.95 79.29
  A 1.31 1.31 0.0 0 1 465.77 81.22
  C 459.60 81.13 449.47 80.56 450.27 89.98
  Q 450.32 90.49 449.80 90.49
  L 436.25 90.44
  A 0.80 0.80 0.0 0 1 435.46 89.62
  Q 435.70 77.23 435.63 64.91
  Q 435.62 63.29 435.46 61.61
  Q 435.35 60.52 434.25 60.53
  L 430.12 60.57
  A 1.19 1.18 89.8 0 0 428.95 61.76
  L 428.98 95.27
  Q 428.98 96.36 430.08 96.40
  Q 439.37 96.70 449.29 96.32
  Q 451.25 96.24 450.95 94.31
  L 450.59 92.03
  Q 450.45 91.08 450.85 91.96"
/>
<path stroke="#f793b9" vector-effect="non-scaling-stroke" d="
  M 483.21 72.25
  Q 483.59 67.02 483.29 61.61
  Q 483.24 60.61 482.23 60.61
  L 477.92 60.60
  Q 476.93 60.60 476.93 61.58
  L 476.75 95.41
  Q 476.75 96.01 477.33 96.17
  Q 481.08 97.25 483.61 95.24
  A 0.90 0.88 -51.8 0 1 484.53 95.12
  C 485.66 95.60 486.84 96.31 488.03 96.52
  Q 496.90 98.09 500.14 89.98
  C 504.53 78.99 496.93 65.83 483.93 72.72
  A 0.49 0.49 0.0 0 1 483.21 72.25"
/>
<path stroke="#f793b9" vector-effect="non-scaling-stroke" d="
  M 285.22 77.36
  Q 285.66 82.14 285.50 87.36
  C 285.27 95.40 289.83 98.13 297.47 96.44
  A 0.84 0.83 -1.6 0 0 298.12 95.76
  Q 298.47 93.49 297.84 91.29
  A 0.91 0.91 0.0 0 0 296.43 90.80
  C 294.29 92.35 291.93 91.48 291.83 88.82
  Q 291.59 82.23 291.88 76.99
  A 0.83 0.83 0.0 0 1 292.76 76.21
  L 296.82 76.49
  Q 298.22 76.59 298.22 75.18
  L 298.21 72.33
  A 1.39 1.39 0.0 0 0 296.70 70.95
  L 293.14 71.25
  A 1.15 1.15 0.0 0 1 291.89 70.15
  L 291.57 62.25
  Q 291.50 60.49 289.97 61.38
  Q 288.07 62.48 286.58 64.32
  Q 285.52 65.61 285.51 67.29
  L 285.49 70.13
  Q 285.49 70.84 284.79 70.94
  L 282.39 71.29
  Q 281.45 71.42 281.47 72.37
  L 281.50 74.86
  Q 281.51 75.86 282.49 76.08
  L 284.50 76.54
  Q 285.16 76.68 285.22 77.36"
/>
<path stroke="#f793b9" vector-effect="non-scaling-stroke" d="
  M 333.40 87.83
  Q 332.49 85.88 334.65 85.87
  L 349.20 85.83
  A 1.10 1.10 0.0 0 0 350.29 84.76
  C 350.45 78.36 347.87 71.97 340.97 70.80
  C 329.01 68.78 323.09 81.55 328.08 90.96
  Q 329.66 93.93 332.45 95.23
  Q 340.67 99.08 347.75 94.22
  Q 349.51 93.01 348.13 91.38
  Q 347.60 90.76 347.08 90.14
  A 2.42 2.41 -35.9 0 0 343.97 89.65
  Q 341.81 90.97 339.34 91.26
  A 5.70 5.68 62.2 0 1 334.94 89.89
  Q 333.96 89.03 333.40 87.83"
/>
<path stroke="#f793b9" vector-effect="non-scaling-stroke" d="
  M 205.67 94.38
  Q 207.23 97.20 210.87 96.38
  Q 211.47 96.25 211.49 95.64
  Q 211.87 87.66 211.56 81.41
  C 211.35 77.24 209.60 73.12 205.53 71.65
  C 200.57 69.86 193.82 70.53 190.72 75.22
  Q 190.40 75.71 190.63 76.24
  Q 191.70 78.70 194.24 79.11
  A 1.57 1.55 24.7 0 0 195.65 78.60
  Q 198.71 75.10 203.25 76.66
  Q 205.76 77.52 205.75 80.45
  A 0.78 0.77 0.4 0 1 204.96 81.22
  C 199.75 81.10 189.38 80.44 189.05 88.25
  C 188.77 95.25 195.14 98.05 201.18 96.36
  C 202.62 95.95 203.69 94.91 204.95 94.18
  Q 205.41 93.91 205.67 94.38"
/>
<path stroke="#f793b9" vector-effect="non-scaling-stroke" d="
  M 221.09 73.10
  C 220.98 70.49 218.56 71.01 216.69 70.95
  Q 215.20 70.91 215.18 72.39
  Q 215.08 82.30 215.25 95.34
  Q 215.26 96.54 216.46 96.49
  L 220.19 96.36
  A 1.21 1.20 87.2 0 0 221.35 95.07
  C 221.09 90.60 220.42 82.35 223.35 78.59
  C 224.76 76.79 227.26 76.86 229.33 77.05
  A 1.36 1.35 -69.4 0 0 230.53 76.50
  Q 231.75 74.85 232.08 72.79
  Q 232.27 71.59 231.12 71.22
  C 227.40 70.01 224.56 71.01 221.87 73.43
  Q 221.13 74.08 221.09 73.10"
/>
<path stroke="#f793b9" vector-effect="non-scaling-stroke" d="
  M 238.46 86.05
  Q 239.10 85.89 239.72 85.89
  Q 246.48 85.91 253.94 85.90
  A 1.70 1.70 0.0 0 0 255.64 84.22
  C 255.70 78.73 253.08 72.63 247.29 71.10
  C 236.42 68.23 229.39 78.24 232.03 87.99
  Q 233.47 93.34 238.00 95.41
  Q 246.09 99.11 253.38 93.86
  A 1.07 1.06 68.5 0 0 253.81 92.86
  C 253.40 89.92 251.07 88.43 248.48 89.97
  C 244.36 92.41 239.86 91.59 238.09 86.77
  A 0.55 0.55 0.0 0 1 238.46 86.05"
/>
<path stroke="#f793b9" vector-effect="non-scaling-stroke" d="
  M 264.24 72.57
  L 263.57 71.61
  A 1.33 1.30 72.3 0 0 262.52 71.05
  L 258.95 71.00
  Q 257.88 70.98 257.88 72.05
  L 257.86 95.13
  Q 257.86 96.41 259.13 96.42
  L 262.99 96.45
  Q 264.39 96.46 264.34 95.05
  Q 264.14 89.17 264.31 82.75
  C 264.36 80.98 264.90 77.66 266.98 77.04
  C 270.41 76.00 274.09 76.42 274.40 80.78
  Q 274.89 87.97 274.55 95.50
  Q 274.51 96.35 275.36 96.38
  L 279.91 96.50
  Q 280.75 96.52 280.78 95.69
  Q 281.09 85.90 280.58 80.06
  Q 279.67 69.74 269.86 70.95
  C 268.24 71.15 266.65 72.14 265.15 72.82
  Q 264.59 73.07 264.24 72.57"
/>
<path stroke="#f793b9" vector-effect="non-scaling-stroke" d="
  M 363.58 90.22
  C 362.18 92.12 358.54 92.49 356.81 90.48
  Q 355.87 89.40 354.88 88.46
  Q 354.48 88.09 353.93 88.10
  Q 351.95 88.15 350.71 89.98
  Q 350.39 90.45 350.54 91.00
  C 351.72 95.17 357.43 97.09 361.31 96.88
  C 367.67 96.52 370.87 92.58 369.83 86.01
  C 369.23 82.21 361.73 80.32 358.71 79.11
  Q 356.56 78.25 358.29 76.71
  L 358.54 76.49
  Q 360.34 74.88 362.43 76.10
  L 365.63 77.99
  Q 366.78 78.66 367.90 77.94
  Q 369.02 77.23 369.55 76.32
  Q 370.41 74.84 369.06 73.78
  Q 362.16 68.33 354.97 72.28
  C 351.55 74.16 350.94 78.28 352.36 81.75
  C 353.46 84.46 359.56 86.04 362.44 86.87
  A 2.16 2.15 26.3 0 1 363.58 90.22"
/>
<path stroke="#f793b9" vector-effect="non-scaling-stroke" d="
  M 378.21 86.38
  A 0.79 0.78 5.9 0 1 378.98 85.76
  L 393.97 85.86
  A 1.52 1.52 0.0 0 0 395.50 84.33
  C 395.41 63.19 366.53 67.95 372.02 88.50
  Q 373.36 93.52 378.29 95.59
  Q 386.25 98.93 393.03 93.92
  Q 393.89 93.29 393.59 92.27
  Q 392.95 90.02 390.80 89.26
  Q 390.26 89.07 389.75 89.34
  C 386.01 91.32 381.70 92.76 378.69 88.57
  Q 377.97 87.55 378.21 86.38"
/>
<path stroke="#f793b9" vector-effect="non-scaling-stroke" d="
  M 403.09 76.70
  C 406.70 73.25 409.34 79.79 413.40 77.58
  C 415.01 76.71 415.31 74.79 413.89 73.70
  Q 407.76 69.00 401.66 71.36
  Q 394.51 74.13 397.57 82.38
  A 1.55 1.50 5.5 0 0 398.25 83.18
  Q 402.29 85.55 407.05 86.71
  A 2.32 2.32 0.0 0 1 408.27 90.47
  Q 407.15 91.77 404.98 91.80
  C 402.66 91.83 401.69 90.16 400.13 88.80
  Q 398.43 87.31 396.74 88.81
  Q 395.85 89.60 395.65 90.84
  A 2.36 2.35 -63.0 0 0 396.31 92.88
  Q 401.96 98.50 408.98 96.41
  Q 415.91 94.35 415.00 86.87
  Q 414.68 84.19 412.24 82.80
  Q 408.42 80.64 403.69 79.20
  A 1.49 1.49 0.0 0 1 403.09 76.70"
/>
<path stroke="#f793b9" vector-effect="non-scaling-stroke" d="
  M 509.64 76.37
  Q 511.55 75.29 513.25 76.11
  C 516.02 77.42 518.39 79.82 521.08 76.27
  A 0.90 0.89 -42.3 0 0 521.13 75.26
  C 516.41 67.41 499.96 69.89 503.16 80.93
  C 504.70 86.26 514.09 85.01 515.15 88.59
  A 1.82 1.82 0.0 0 1 514.52 90.54
  C 510.97 93.29 509.10 91.47 506.57 88.93
  Q 504.74 87.09 502.79 88.81
  Q 501.70 89.78 502.10 91.86
  A 2.47 2.45 16.2 0 0 502.84 93.20
  Q 508.65 98.60 515.76 96.24
  Q 520.18 94.78 521.16 90.37
  C 522.89 82.63 515.24 81.20 509.98 79.09
  Q 508.06 78.31 509.31 76.66
  Q 509.44 76.48 509.64 76.37"
/>
<path stroke="#fd80a5" vector-effect="non-scaling-stroke" d="
  M 132.99 43.22
  A 11.26 11.26 0.0 0 0 121.73 31.96
  L 45.47 31.96
  A 11.26 11.26 0.0 0 0 34.21 43.22
  L 34.21 119.48
  A 11.26 11.26 0.0 0 0 45.47 130.74
  L 121.73 130.74
  A 11.26 11.26 0.0 0 0 132.99 119.48
  L 132.99 43.22"
/>
<path stroke="#f8a7c6" vector-effect="non-scaling-stroke" d="
  M 74.39 69.47
  Q 73.93 74.67 74.60 79.05
  A 2.00 1.98 7.6 0 0 75.79 80.59
  Q 85.01 84.58 93.24 79.37
  C 99.14 75.63 102.03 69.02 101.38 62.22
  C 100.83 56.45 97.86 50.21 92.14 48.62
  Q 89.79 47.97 87.56 47.01
  C 79.44 43.51 70.56 48.62 67.11 56.11
  Q 65.53 59.51 65.66 67.30
  Q 65.90 83.12 65.68 99.22
  Q 65.62 103.04 68.92 101.10
  Q 69.66 100.66 70.32 100.16
  Q 73.51 97.72 73.68 93.70
  Q 74.04 85.12 73.33 76.78
  Q 73.03 73.21 73.53 69.63
  Q 73.86 67.31 73.74 65.16
  C 73.29 57.61 80.92 51.07 87.98 55.22
  C 91.32 57.18 94.30 60.87 93.16 65.01
  Q 92.32 68.05 91.52 70.58
  Q 91.36 71.10 90.93 71.41
  Q 86.89 74.40 81.55 73.44
  C 79.26 73.02 77.32 71.13 75.69 69.54
  Q 75.28 69.13 74.73 69.15
  A 0.35 0.35 0.0 0 0 74.39 69.47"
/>
<path stroke="#f8a7c6" vector-effect="non-scaling-stroke" d="
  M 99.6166 86.9204
  A 2.83 2.83 0.0 0 0 96.7768 84.1003
  L 79.7569 84.1597
  A 2.83 2.83 0.0 0 0 76.9368 86.9996
  L 76.9434 88.8796
  A 2.83 2.83 0.0 0 0 79.7832 91.6997
  L 96.8031 91.6403
  A 2.83 2.83 0.0 0 0 99.6232 88.8004
  L 99.6166 86.9204"
/>
<path stroke="#f793b9" vector-effect="non-scaling-stroke" d="
  M 91.7350 96.2861
  A 3.36 3.36 0.0 0 0 88.3809 92.9202
  L 88.1409 92.9198
  A 3.36 3.36 0.0 0 0 84.7750 96.2739
  L 84.7450 113.4539
  A 3.36 3.36 0.0 0 0 88.0991 116.8198
  L 88.3391 116.8202
  A 3.36 3.36 0.0 0 0 91.7050 113.4661
  L 91.7350 96.2861"
/>
<path stroke="#f8a7c6" vector-effect="non-scaling-stroke" d="
  M 95.0027 53.1654
  A 2.11 0.72 41.4 0 0 93.8961 51.2299
  A 2.11 0.72 41.4 0 0 91.8373 50.3746
  A 2.11 0.72 41.4 0 0 92.9439 52.3101
  A 2.11 0.72 41.4 0 0 95.0027 53.1654"
/>
<path stroke="#f8a7c6" vector-effect="non-scaling-stroke" d="
  M 97.01 55.19
  L 97.61 63.37
  A 0.01 0.01 0.0 0 0 97.62 63.38
  L 97.77 63.37
  A 3.78 0.72 85.8 0 0 98.21 59.55
  L 98.16 58.89
  A 3.78 0.72 85.8 0 0 97.17 55.17
  L 97.02 55.18
  A 0.01 0.01 0.0 0 0 97.01 55.19"
/>
<path stroke="#f793b9" vector-effect="non-scaling-stroke" d="
  M 171.60 67.49
  L 171.52 74.75
  A 0.93 0.93 0.0 0 0 172.44 75.69
  L 175.89 75.73
  A 6.74 4.21 0.6 0 0 182.68 71.59
  L 182.68 70.89
  A 6.74 4.21 0.6 0 0 175.99 66.61
  L 172.54 66.57
  A 0.93 0.93 0.0 0 0 171.60 67.49"
/>
<path stroke="#f793b9" vector-effect="non-scaling-stroke" d="
  M 466.24 86.08
  Q 462.38 85.47 459.03 86.15
  C 455.36 86.89 456.21 91.37 459.76 91.62
  Q 464.64 91.97 466.82 87.15
  A 0.77 0.76 -73.6 0 0 466.24 86.08"
/>
<path stroke="#f793b9" vector-effect="non-scaling-stroke" d="
  M 494.8831 81.8152
  A 5.44 5.44 0.0 0 0 489.2841 76.5390
  L 488.3245 76.5674
  A 5.44 5.44 0.0 0 0 483.0483 82.1664
  L 483.1569 85.8248
  A 5.44 5.44 0.0 0 0 488.7559 91.1010
  L 489.7155 91.0726
  A 5.44 5.44 0.0 0 0 494.9917 85.4736
  L 494.8831 81.8152"
/>
<path stroke="#f793b9" vector-effect="non-scaling-stroke" d="
  M 333.32 81.19
  L 343.96 81.27
  A 0.13 0.13 0.0 0 0 344.09 81.14
  L 344.09 81.08
  A 5.28 4.95 0.4 0 0 338.85 76.09
  L 338.51 76.09
  A 5.28 4.95 0.4 0 0 333.19 81.00
  L 333.19 81.06
  A 0.13 0.13 0.0 0 0 333.32 81.19"
/>
<path stroke="#f793b9" vector-effect="non-scaling-stroke" d="
  M 200.99 91.47
  Q 205.20 90.21 205.54 86.58
  Q 205.60 85.96 204.98 85.94
  Q 202.04 85.81 198.85 85.88
  C 193.49 86.00 195.07 93.24 200.99 91.47"
/>
<path stroke="#f793b9" vector-effect="non-scaling-stroke" d="
  M 238.46 81.19
  L 249.22 81.21
  A 0.11 0.11 0.0 0 0 249.33 81.10
  L 249.33 81.03
  A 5.40 4.92 0.1 0 0 243.93 76.10
  L 243.75 76.10
  A 5.40 4.92 0.1 0 0 238.35 81.01
  L 238.35 81.08
  A 0.11 0.11 0.0 0 0 238.46 81.19"
/>
<path stroke="#f793b9" vector-effect="non-scaling-stroke" d="
  M 378.35 81.21
  L 388.85 81.29
  A 0.13 0.13 0.0 0 0 388.98 81.16
  L 388.98 81.10
  A 5.26 5.01 0.4 0 0 383.76 76.05
  L 383.52 76.05
  A 5.26 5.01 0.4 0 0 378.22 81.02
  L 378.22 81.08
  A 0.13 0.13 0.0 0 0 378.35 81.21"
/>
</g>
<path fill="#ffffff" d="
  M 0.00 0.00
  L 537.00 0.00
  L 537.00 145.00
  L 0.00 145.00
  L 0.00 0.00
  Z
  M 135.24 42.34
  A 12.73 12.73 0.0 0 0 122.51 29.61
  L 44.73 29.61
  A 12.73 12.73 0.0 0 0 32.00 42.34
  L 32.00 120.24
  A 12.73 12.73 0.0 0 0 44.73 132.97
  L 122.51 132.97
  A 12.73 12.73 0.0 0 0 135.24 120.24
  L 135.24 42.34
  Z
  M 172.14 81.68
  C 177.91 81.65 186.06 81.49 188.19 74.75
  C 190.23 68.31 187.22 62.69 180.77 61.31
  C 175.97 60.28 170.99 60.59 166.08 60.67
  Q 164.98 60.69 164.98 61.78
  L 165.12 95.30
  A 1.16 1.16 0.0 0 0 166.30 96.46
  L 170.62 96.37
  Q 171.57 96.35 171.57 95.39
  L 171.48 82.35
  Q 171.48 81.69 172.14 81.68
  Z
  M 307.58 72.56
  L 307.75 61.96
  Q 307.78 60.56 306.37 60.56
  L 302.44 60.59
  Q 301.35 60.59 301.35 61.68
  L 301.27 95.38
  Q 301.27 96.49 302.38 96.47
  L 306.70 96.40
  Q 307.85 96.39 307.80 95.24
  Q 307.54 88.68 307.90 82.53
  Q 308.34 75.16 315.72 76.80
  Q 316.97 77.08 317.31 78.31
  Q 317.98 80.74 318.02 83.31
  Q 318.13 89.67 317.90 95.23
  Q 317.85 96.43 319.04 96.44
  L 323.00 96.51
  Q 324.66 96.54 324.56 94.88
  Q 324.25 90.05 324.34 84.34
  C 324.44 77.14 322.76 70.18 314.08 70.82
  C 312.08 70.97 310.17 72.15 308.42 73.07
  Q 307.57 73.53 307.58 72.56
  Z
  M 450.85 91.96
  C 453.22 97.12 458.79 97.68 463.64 95.99
  Q 464.23 95.78 464.63 95.31
  L 465.81 93.93
  Q 466.37 93.29 466.64 94.09
  Q 467.84 97.64 472.30 96.18
  Q 472.83 96.01 472.83 95.45
  Q 472.77 89.45 472.92 83.73
  C 473.07 78.27 471.37 72.73 465.50 71.22
  C 461.22 70.11 454.65 70.95 452.06 75.03
  A 1.25 1.25 0.0 0 0 451.99 76.27
  Q 453.01 78.32 454.88 79.06
  A 1.43 1.42 37.8 0 0 456.26 78.89
  C 457.47 78.01 458.32 76.94 459.82 76.53
  Q 464.76 75.18 466.95 79.29
  A 1.31 1.31 0.0 0 1 465.77 81.22
  C 459.60 81.13 449.47 80.56 450.27 89.98
  Q 450.32 90.49 449.80 90.49
  L 436.25 90.44
  A 0.80 0.80 0.0 0 1 435.46 89.62
  Q 435.70 77.23 435.63 64.91
  Q 435.62 63.29 435.46 61.61
  Q 435.35 60.52 434.25 60.53
  L 430.12 60.57
  A 1.19 1.18 89.8 0 0 428.95 61.76
  L 428.98 95.27
  Q 428.98 96.36 430.08 96.40
  Q 439.37 96.70 449.29 96.32
  Q 451.25 96.24 450.95 94.31
  L 450.59 92.03
  Q 450.45 91.08 450.85 91.96
  Z
  M 483.21 72.25
  Q 483.59 67.02 483.29 61.61
  Q 483.24 60.61 482.23 60.61
  L 477.92 60.60
  Q 476.93 60.60 476.93 61.58
  L 476.75 95.41
  Q 476.75 96.01 477.33 96.17
  Q 481.08 97.25 483.61 95.24
  A 0.90 0.88 -51.8 0 1 484.53 95.12
  C 485.66 95.60 486.84 96.31 488.03 96.52
  Q 496.90 98.09 500.14 89.98
  C 504.53 78.99 496.93 65.83 483.93 72.72
  A 0.49 0.49 0.0 0 1 483.21 72.25
  Z
  M 285.22 77.36
  Q 285.66 82.14 285.50 87.36
  C 285.27 95.40 289.83 98.13 297.47 96.44
  A 0.84 0.83 -1.6 0 0 298.12 95.76
  Q 298.47 93.49 297.84 91.29
  A 0.91 0.91 0.0 0 0 296.43 90.80
  C 294.29 92.35 291.93 91.48 291.83 88.82
  Q 291.59 82.23 291.88 76.99
  A 0.83 0.83 0.0 0 1 292.76 76.21
  L 296.82 76.49
  Q 298.22 76.59 298.22 75.18
  L 298.21 72.33
  A 1.39 1.39 0.0 0 0 296.70 70.95
  L 293.14 71.25
  A 1.15 1.15 0.0 0 1 291.89 70.15
  L 291.57 62.25
  Q 291.50 60.49 289.97 61.38
  Q 288.07 62.48 286.58 64.32
  Q 285.52 65.61 285.51 67.29
  L 285.49 70.13
  Q 285.49 70.84 284.79 70.94
  L 282.39 71.29
  Q 281.45 71.42 281.47 72.37
  L 281.50 74.86
  Q 281.51 75.86 282.49 76.08
  L 284.50 76.54
  Q 285.16 76.68 285.22 77.36
  Z
  M 333.40 87.83
  Q 332.49 85.88 334.65 85.87
  L 349.20 85.83
  A 1.10 1.10 0.0 0 0 350.29 84.76
  C 350.45 78.36 347.87 71.97 340.97 70.80
  C 329.01 68.78 323.09 81.55 328.08 90.96
  Q 329.66 93.93 332.45 95.23
  Q 340.67 99.08 347.75 94.22
  Q 349.51 93.01 348.13 91.38
  Q 347.60 90.76 347.08 90.14
  A 2.42 2.41 -35.9 0 0 343.97 89.65
  Q 341.81 90.97 339.34 91.26
  A 5.70 5.68 62.2 0 1 334.94 89.89
  Q 333.96 89.03 333.40 87.83
  Z
  M 205.67 94.38
  Q 207.23 97.20 210.87 96.38
  Q 211.47 96.25 211.49 95.64
  Q 211.87 87.66 211.56 81.41
  C 211.35 77.24 209.60 73.12 205.53 71.65
  C 200.57 69.86 193.82 70.53 190.72 75.22
  Q 190.40 75.71 190.63 76.24
  Q 191.70 78.70 194.24 79.11
  A 1.57 1.55 24.7 0 0 195.65 78.60
  Q 198.71 75.10 203.25 76.66
  Q 205.76 77.52 205.75 80.45
  A 0.78 0.77 0.4 0 1 204.96 81.22
  C 199.75 81.10 189.38 80.44 189.05 88.25
  C 188.77 95.25 195.14 98.05 201.18 96.36
  C 202.62 95.95 203.69 94.91 204.95 94.18
  Q 205.41 93.91 205.67 94.38
  Z
  M 221.09 73.10
  C 220.98 70.49 218.56 71.01 216.69 70.95
  Q 215.20 70.91 215.18 72.39
  Q 215.08 82.30 215.25 95.34
  Q 215.26 96.54 216.46 96.49
  L 220.19 96.36
  A 1.21 1.20 87.2 0 0 221.35 95.07
  C 221.09 90.60 220.42 82.35 223.35 78.59
  C 224.76 76.79 227.26 76.86 229.33 77.05
  A 1.36 1.35 -69.4 0 0 230.53 76.50
  Q 231.75 74.85 232.08 72.79
  Q 232.27 71.59 231.12 71.22
  C 227.40 70.01 224.56 71.01 221.87 73.43
  Q 221.13 74.08 221.09 73.10
  Z
  M 238.46 86.05
  Q 239.10 85.89 239.72 85.89
  Q 246.48 85.91 253.94 85.90
  A 1.70 1.70 0.0 0 0 255.64 84.22
  C 255.70 78.73 253.08 72.63 247.29 71.10
  C 236.42 68.23 229.39 78.24 232.03 87.99
  Q 233.47 93.34 238.00 95.41
  Q 246.09 99.11 253.38 93.86
  A 1.07 1.06 68.5 0 0 253.81 92.86
  C 253.40 89.92 251.07 88.43 248.48 89.97
  C 244.36 92.41 239.86 91.59 238.09 86.77
  A 0.55 0.55 0.0 0 1 238.46 86.05
  Z
  M 264.24 72.57
  L 263.57 71.61
  A 1.33 1.30 72.3 0 0 262.52 71.05
  L 258.95 71.00
  Q 257.88 70.98 257.88 72.05
  L 257.86 95.13
  Q 257.86 96.41 259.13 96.42
  L 262.99 96.45
  Q 264.39 96.46 264.34 95.05
  Q 264.14 89.17 264.31 82.75
  C 264.36 80.98 264.90 77.66 266.98 77.04
  C 270.41 76.00 274.09 76.42 274.40 80.78
  Q 274.89 87.97 274.55 95.50
  Q 274.51 96.35 275.36 96.38
  L 279.91 96.50
  Q 280.75 96.52 280.78 95.69
  Q 281.09 85.90 280.58 80.06
  Q 279.67 69.74 269.86 70.95
  C 268.24 71.15 266.65 72.14 265.15 72.82
  Q 264.59 73.07 264.24 72.57
  Z
  M 363.58 90.22
  C 362.18 92.12 358.54 92.49 356.81 90.48
  Q 355.87 89.40 354.88 88.46
  Q 354.48 88.09 353.93 88.10
  Q 351.95 88.15 350.71 89.98
  Q 350.39 90.45 350.54 91.00
  C 351.72 95.17 357.43 97.09 361.31 96.88
  C 367.67 96.52 370.87 92.58 369.83 86.01
  C 369.23 82.21 361.73 80.32 358.71 79.11
  Q 356.56 78.25 358.29 76.71
  L 358.54 76.49
  Q 360.34 74.88 362.43 76.10
  L 365.63 77.99
  Q 366.78 78.66 367.90 77.94
  Q 369.02 77.23 369.55 76.32
  Q 370.41 74.84 369.06 73.78
  Q 362.16 68.33 354.97 72.28
  C 351.55 74.16 350.94 78.28 352.36 81.75
  C 353.46 84.46 359.56 86.04 362.44 86.87
  A 2.16 2.15 26.3 0 1 363.58 90.22
  Z
  M 378.21 86.38
  A 0.79 0.78 5.9 0 1 378.98 85.76
  L 393.97 85.86
  A 1.52 1.52 0.0 0 0 395.50 84.33
  C 395.41 63.19 366.53 67.95 372.02 88.50
  Q 373.36 93.52 378.29 95.59
  Q 386.25 98.93 393.03 93.92
  Q 393.89 93.29 393.59 92.27
  Q 392.95 90.02 390.80 89.26
  Q 390.26 89.07 389.75 89.34
  C 386.01 91.32 381.70 92.76 378.69 88.57
  Q 377.97 87.55 378.21 86.38
  Z
  M 403.09 76.70
  C 406.70 73.25 409.34 79.79 413.40 77.58
  C 415.01 76.71 415.31 74.79 413.89 73.70
  Q 407.76 69.00 401.66 71.36
  Q 394.51 74.13 397.57 82.38
  A 1.55 1.50 5.5 0 0 398.25 83.18
  Q 402.29 85.55 407.05 86.71
  A 2.32 2.32 0.0 0 1 408.27 90.47
  Q 407.15 91.77 404.98 91.80
  C 402.66 91.83 401.69 90.16 400.13 88.80
  Q 398.43 87.31 396.74 88.81
  Q 395.85 89.60 395.65 90.84
  A 2.36 2.35 -63.0 0 0 396.31 92.88
  Q 401.96 98.50 408.98 96.41
  Q 415.91 94.35 415.00 86.87
  Q 414.68 84.19 412.24 82.80
  Q 408.42 80.64 403.69 79.20
  A 1.49 1.49 0.0 0 1 403.09 76.70
  Z
  M 509.64 76.37
  Q 511.55 75.29 513.25 76.11
  C 516.02 77.42 518.39 79.82 521.08 76.27
  A 0.90 0.89 -42.3 0 0 521.13 75.26
  C 516.41 67.41 499.96 69.89 503.16 80.93
  C 504.70 86.26 514.09 85.01 515.15 88.59
  A 1.82 1.82 0.0 0 1 514.52 90.54
  C 510.97 93.29 509.10 91.47 506.57 88.93
  Q 504.74 87.09 502.79 88.81
  Q 501.70 89.78 502.10 91.86
  A 2.47 2.45 16.2 0 0 502.84 93.20
  Q 508.65 98.60 515.76 96.24
  Q 520.18 94.78 521.16 90.37
  C 522.89 82.63 515.24 81.20 509.98 79.09
  Q 508.06 78.31 509.31 76.66
  Q 509.44 76.48 509.64 76.37
  Z"
/>
<path fill="#fa014b" d="
  M 135.24 120.24
  A 12.73 12.73 0.0 0 1 122.51 132.97
  L 44.73 132.97
  A 12.73 12.73 0.0 0 1 32.00 120.24
  L 32.00 42.34
  A 12.73 12.73 0.0 0 1 44.73 29.61
  L 122.51 29.61
  A 12.73 12.73 0.0 0 1 135.24 42.34
  L 135.24 120.24
  Z
  M 132.99 43.22
  A 11.26 11.26 0.0 0 0 121.73 31.96
  L 45.47 31.96
  A 11.26 11.26 0.0 0 0 34.21 43.22
  L 34.21 119.48
  A 11.26 11.26 0.0 0 0 45.47 130.74
  L 121.73 130.74
  A 11.26 11.26 0.0 0 0 132.99 119.48
  L 132.99 43.22
  Z"
/>
<path fill="#ffffff" d="
  M 132.99 119.48
  A 11.26 11.26 0.0 0 1 121.73 130.74
  L 45.47 130.74
  A 11.26 11.26 0.0 0 1 34.21 119.48
  L 34.21 43.22
  A 11.26 11.26 0.0 0 1 45.47 31.96
  L 121.73 31.96
  A 11.26 11.26 0.0 0 1 132.99 43.22
  L 132.99 119.48
  Z
  M 74.39 69.47
  Q 73.93 74.67 74.60 79.05
  A 2.00 1.98 7.6 0 0 75.79 80.59
  Q 85.01 84.58 93.24 79.37
  C 99.14 75.63 102.03 69.02 101.38 62.22
  C 100.83 56.45 97.86 50.21 92.14 48.62
  Q 89.79 47.97 87.56 47.01
  C 79.44 43.51 70.56 48.62 67.11 56.11
  Q 65.53 59.51 65.66 67.30
  Q 65.90 83.12 65.68 99.22
  Q 65.62 103.04 68.92 101.10
  Q 69.66 100.66 70.32 100.16
  Q 73.51 97.72 73.68 93.70
  Q 74.04 85.12 73.33 76.78
  Q 73.03 73.21 73.53 69.63
  Q 73.86 67.31 73.74 65.16
  C 73.29 57.61 80.92 51.07 87.98 55.22
  C 91.32 57.18 94.30 60.87 93.16 65.01
  Q 92.32 68.05 91.52 70.58
  Q 91.36 71.10 90.93 71.41
  Q 86.89 74.40 81.55 73.44
  C 79.26 73.02 77.32 71.13 75.69 69.54
  Q 75.28 69.13 74.73 69.15
  A 0.35 0.35 0.0 0 0 74.39 69.47
  Z
  M 99.6166 86.9204
  A 2.83 2.83 0.0 0 0 96.7768 84.1003
  L 79.7569 84.1597
  A 2.83 2.83 0.0 0 0 76.9368 86.9996
  L 76.9434 88.8796
  A 2.83 2.83 0.0 0 0 79.7832 91.6997
  L 96.8031 91.6403
  A 2.83 2.83 0.0 0 0 99.6232 88.8004
  L 99.6166 86.9204
  Z
  M 91.7350 96.2861
  A 3.36 3.36 0.0 0 0 88.3809 92.9202
  L 88.1409 92.9198
  A 3.36 3.36 0.0 0 0 84.7750 96.2739
  L 84.7450 113.4539
  A 3.36 3.36 0.0 0 0 88.0991 116.8198
  L 88.3391 116.8202
  A 3.36 3.36 0.0 0 0 91.7050 113.4661
  L 91.7350 96.2861
  Z"
/>
<path fill="#f14e8c" d="
  M 74.39 69.47
  A 0.35 0.35 0.0 0 1 74.73 69.15
  Q 75.28 69.13 75.69 69.54
  C 77.32 71.13 79.26 73.02 81.55 73.44
  Q 86.89 74.40 90.93 71.41
  Q 91.36 71.10 91.52 70.58
  Q 92.32 68.05 93.16 65.01
  C 94.30 60.87 91.32 57.18 87.98 55.22
  C 80.92 51.07 73.29 57.61 73.74 65.16
  Q 73.86 67.31 73.53 69.63
  Q 73.03 73.21 73.33 76.78
  Q 74.04 85.12 73.68 93.70
  Q 73.51 97.72 70.32 100.16
  Q 69.66 100.66 68.92 101.10
  Q 65.62 103.04 65.68 99.22
  Q 65.90 83.12 65.66 67.30
  Q 65.53 59.51 67.11 56.11
  C 70.56 48.62 79.44 43.51 87.56 47.01
  Q 89.79 47.97 92.14 48.62
  C 97.86 50.21 100.83 56.45 101.38 62.22
  C 102.03 69.02 99.14 75.63 93.24 79.37
  Q 85.01 84.58 75.79 80.59
  A 2.00 1.98 7.6 0 1 74.60 79.05
  Q 73.93 74.67 74.39 69.47
  Z
  M 95.0027 53.1654
  A 2.11 0.72 41.4 0 0 93.8961 51.2299
  A 2.11 0.72 41.4 0 0 91.8373 50.3746
  A 2.11 0.72 41.4 0 0 92.9439 52.3101
  A 2.11 0.72 41.4 0 0 95.0027 53.1654
  Z
  M 97.01 55.19
  L 97.61 63.37
  A 0.01 0.01 0.0 0 0 97.62 63.38
  L 97.77 63.37
  A 3.78 0.72 85.8 0 0 98.21 59.55
  L 98.16 58.89
  A 3.78 0.72 85.8 0 0 97.17 55.17
  L 97.02 55.18
  A 0.01 0.01 0.0 0 0 97.01 55.19
  Z"
/>
<ellipse fill="#ffffff" cx="0.00" cy="0.00" transform="translate(93.42,51.77) rotate(41.4)" rx="2.11" ry="0.72"/>
<path fill="#ffffff" d="
  M 97.01 55.19
  A 0.01 0.01 0.0 0 1 97.02 55.18
  L 97.17 55.17
  A 3.78 0.72 85.8 0 1 98.16 58.89
  L 98.21 59.55
  A 3.78 0.72 85.8 0 1 97.77 63.37
  L 97.62 63.38
  A 0.01 0.01 0.0 0 1 97.61 63.37
  L 97.01 55.19
  Z"
/>
<path fill="#ef2772" d="
  M 171.48 82.35
  L 171.57 95.39
  Q 171.57 96.35 170.62 96.37
  L 166.30 96.46
  A 1.16 1.16 0.0 0 1 165.12 95.30
  L 164.98 61.78
  Q 164.98 60.69 166.08 60.67
  C 170.99 60.59 175.97 60.28 180.77 61.31
  C 187.22 62.69 190.23 68.31 188.19 74.75
  C 186.06 81.49 177.91 81.65 172.14 81.68
  Q 171.48 81.69 171.48 82.35
  Z
  M 171.60 67.49
  L 171.52 74.75
  A 0.93 0.93 0.0 0 0 172.44 75.69
  L 175.89 75.73
  A 6.74 4.21 0.6 0 0 182.68 71.59
  L 182.68 70.89
  A 6.74 4.21 0.6 0 0 175.99 66.61
  L 172.54 66.57
  A 0.93 0.93 0.0 0 0 171.60 67.49
  Z"
/>
<path fill="#ef2772" d="
  M 308.42 73.07
  C 310.17 72.15 312.08 70.97 314.08 70.82
  C 322.76 70.18 324.44 77.14 324.34 84.34
  Q 324.25 90.05 324.56 94.88
  Q 324.66 96.54 323.00 96.51
  L 319.04 96.44
  Q 317.85 96.43 317.90 95.23
  Q 318.13 89.67 318.02 83.31
  Q 317.98 80.74 317.31 78.31
  Q 316.97 77.08 315.72 76.80
  Q 308.34 75.16 307.90 82.53
  Q 307.54 88.68 307.80 95.24
  Q 307.85 96.39 306.70 96.40
  L 302.38 96.47
  Q 301.27 96.49 301.27 95.38
  L 301.35 61.68
  Q 301.35 60.59 302.44 60.59
  L 306.37 60.56
  Q 307.78 60.56 307.75 61.96
  L 307.58 72.56
  Q 307.57 73.53 308.42 73.07
  Z"
/>
<path fill="#ef2772" d="
  M 450.59 92.03
  L 450.95 94.31
  Q 451.25 96.24 449.29 96.32
  Q 439.37 96.70 430.08 96.40
  Q 428.98 96.36 428.98 95.27
  L 428.95 61.76
  A 1.19 1.18 89.8 0 1 430.12 60.57
  L 434.25 60.53
  Q 435.35 60.52 435.46 61.61
  Q 435.62 63.29 435.63 64.91
  Q 435.70 77.23 435.46 89.62
  A 0.80 0.80 0.0 0 0 436.25 90.44
  L 449.80 90.49
  Q 450.32 90.49 450.27 89.98
  C 449.47 80.56 459.60 81.13 465.77 81.22
  A 1.31 1.31 0.0 0 0 466.95 79.29
  Q 464.76 75.18 459.82 76.53
  C 458.32 76.94 457.47 78.01 456.26 78.89
  A 1.43 1.42 37.8 0 1 454.88 79.06
  Q 453.01 78.32 451.99 76.27
  A 1.25 1.25 0.0 0 1 452.06 75.03
  C 454.65 70.95 461.22 70.11 465.50 71.22
  C 471.37 72.73 473.07 78.27 472.92 83.73
  Q 472.77 89.45 472.83 95.45
  Q 472.83 96.01 472.30 96.18
  Q 467.84 97.64 466.64 94.09
  Q 466.37 93.29 465.81 93.93
  L 464.63 95.31
  Q 464.23 95.78 463.64 95.99
  C 458.79 97.68 453.22 97.12 450.85 91.96
  Q 450.45 91.08 450.59 92.03
  Z
  M 466.24 86.08
  Q 462.38 85.47 459.03 86.15
  C 455.36 86.89 456.21 91.37 459.76 91.62
  Q 464.64 91.97 466.82 87.15
  A 0.77 0.76 -73.6 0 0 466.24 86.08
  Z"
/>
<path fill="#ef2772" d="
  M 483.21 72.25
  A 0.49 0.49 0.0 0 0 483.93 72.72
  C 496.93 65.83 504.53 78.99 500.14 89.98
  Q 496.90 98.09 488.03 96.52
  C 486.84 96.31 485.66 95.60 484.53 95.12
  A 0.90 0.88 -51.8 0 0 483.61 95.24
  Q 481.08 97.25 477.33 96.17
  Q 476.75 96.01 476.75 95.41
  L 476.93 61.58
  Q 476.93 60.60 477.92 60.60
  L 482.23 60.61
  Q 483.24 60.61 483.29 61.61
  Q 483.59 67.02 483.21 72.25
  Z
  M 494.8831 81.8152
  A 5.44 5.44 0.0 0 0 489.2841 76.5390
  L 488.3245 76.5674
  A 5.44 5.44 0.0 0 0 483.0483 82.1664
  L 483.1569 85.8248
  A 5.44 5.44 0.0 0 0 488.7559 91.1010
  L 489.7155 91.0726
  A 5.44 5.44 0.0 0 0 494.9917 85.4736
  L 494.8831 81.8152
  Z"
/>
<path fill="#ef2772" d="
  M 284.50 76.54
  L 282.49 76.08
  Q 281.51 75.86 281.50 74.86
  L 281.47 72.37
  Q 281.45 71.42 282.39 71.29
  L 284.79 70.94
  Q 285.49 70.84 285.49 70.13
  L 285.51 67.29
  Q 285.52 65.61 286.58 64.32
  Q 288.07 62.48 289.97 61.38
  Q 291.50 60.49 291.57 62.25
  L 291.89 70.15
  A 1.15 1.15 0.0 0 0 293.14 71.25
  L 296.70 70.95
  A 1.39 1.39 0.0 0 1 298.21 72.33
  L 298.22 75.18
  Q 298.22 76.59 296.82 76.49
  L 292.76 76.21
  A 0.83 0.83 0.0 0 0 291.88 76.99
  Q 291.59 82.23 291.83 88.82
  C 291.93 91.48 294.29 92.35 296.43 90.80
  A 0.91 0.91 0.0 0 1 297.84 91.29
  Q 298.47 93.49 298.12 95.76
  A 0.84 0.83 -1.6 0 1 297.47 96.44
  C 289.83 98.13 285.27 95.40 285.50 87.36
  Q 285.66 82.14 285.22 77.36
  Q 285.16 76.68 284.50 76.54
  Z"
/>
<path fill="#ffffff" d="
  M 171.60 67.49
  A 0.93 0.93 0.0 0 1 172.54 66.57
  L 175.99 66.61
  A 6.74 4.21 0.6 0 1 182.68 70.89
  L 182.68 71.59
  A 6.74 4.21 0.6 0 1 175.89 75.73
  L 172.44 75.69
  A 0.93 0.93 0.0 0 1 171.52 74.75
  L 171.60 67.49
  Z"
/>
<path fill="#ef2772" d="
  M 333.40 87.83
  Q 333.96 89.03 334.94 89.89
  A 5.70 5.68 62.2 0 0 339.34 91.26
  Q 341.81 90.97 343.97 89.65
  A 2.42 2.41 -35.9 0 1 347.08 90.14
  Q 347.60 90.76 348.13 91.38
  Q 349.51 93.01 347.75 94.22
  Q 340.67 99.08 332.45 95.23
  Q 329.66 93.93 328.08 90.96
  C 323.09 81.55 329.01 68.78 340.97 70.80
  C 347.87 71.97 350.45 78.36 350.29 84.76
  A 1.10 1.10 0.0 0 1 349.20 85.83
  L 334.65 85.87
  Q 332.49 85.88 333.40 87.83
  Z
  M 333.32 81.19
  L 343.96 81.27
  A 0.13 0.13 0.0 0 0 344.09 81.14
  L 344.09 81.08
  A 5.28 4.95 0.4 0 0 338.85 76.09
  L 338.51 76.09
  A 5.28 4.95 0.4 0 0 333.19 81.00
  L 333.19 81.06
  A 0.13 0.13 0.0 0 0 333.32 81.19
  Z"
/>
<path fill="#ef2772" d="
  M 204.95 94.18
  C 203.69 94.91 202.62 95.95 201.18 96.36
  C 195.14 98.05 188.77 95.25 189.05 88.25
  C 189.38 80.44 199.75 81.10 204.96 81.22
  A 0.78 0.77 0.4 0 0 205.75 80.45
  Q 205.76 77.52 203.25 76.66
  Q 198.71 75.10 195.65 78.60
  A 1.57 1.55 24.7 0 1 194.24 79.11
  Q 191.70 78.70 190.63 76.24
  Q 190.40 75.71 190.72 75.22
  C 193.82 70.53 200.57 69.86 205.53 71.65
  C 209.60 73.12 211.35 77.24 211.56 81.41
  Q 211.87 87.66 211.49 95.64
  Q 211.47 96.25 210.87 96.38
  Q 207.23 97.20 205.67 94.38
  Q 205.41 93.91 204.95 94.18
  Z
  M 200.99 91.47
  Q 205.20 90.21 205.54 86.58
  Q 205.60 85.96 204.98 85.94
  Q 202.04 85.81 198.85 85.88
  C 193.49 86.00 195.07 93.24 200.99 91.47
  Z"
/>
<path fill="#ef2772" d="
  M 221.87 73.43
  C 224.56 71.01 227.40 70.01 231.12 71.22
  Q 232.27 71.59 232.08 72.79
  Q 231.75 74.85 230.53 76.50
  A 1.36 1.35 -69.4 0 1 229.33 77.05
  C 227.26 76.86 224.76 76.79 223.35 78.59
  C 220.42 82.35 221.09 90.60 221.35 95.07
  A 1.21 1.20 87.2 0 1 220.19 96.36
  L 216.46 96.49
  Q 215.26 96.54 215.25 95.34
  Q 215.08 82.30 215.18 72.39
  Q 215.20 70.91 216.69 70.95
  C 218.56 71.01 220.98 70.49 221.09 73.10
  Q 221.13 74.08 221.87 73.43
  Z"
/>
<path fill="#ef2772" d="
  M 238.46 86.05
  A 0.55 0.55 0.0 0 0 238.09 86.77
  C 239.86 91.59 244.36 92.41 248.48 89.97
  C 251.07 88.43 253.40 89.92 253.81 92.86
  A 1.07 1.06 68.5 0 1 253.38 93.86
  Q 246.09 99.11 238.00 95.41
  Q 233.47 93.34 232.03 87.99
  C 229.39 78.24 236.42 68.23 247.29 71.10
  C 253.08 72.63 255.70 78.73 255.64 84.22
  A 1.70 1.70 0.0 0 1 253.94 85.90
  Q 246.48 85.91 239.72 85.89
  Q 239.10 85.89 238.46 86.05
  Z
  M 238.46 81.19
  L 249.22 81.21
  A 0.11 0.11 0.0 0 0 249.33 81.10
  L 249.33 81.03
  A 5.40 4.92 0.1 0 0 243.93 76.10
  L 243.75 76.10
  A 5.40 4.92 0.1 0 0 238.35 81.01
  L 238.35 81.08
  A 0.11 0.11 0.0 0 0 238.46 81.19
  Z"
/>
<path fill="#ef2772" d="
  M 265.15 72.82
  C 266.65 72.14 268.24 71.15 269.86 70.95
  Q 279.67 69.74 280.58 80.06
  Q 281.09 85.90 280.78 95.69
  Q 280.75 96.52 279.91 96.50
  L 275.36 96.38
  Q 274.51 96.35 274.55 95.50
  Q 274.89 87.97 274.40 80.78
  C 274.09 76.42 270.41 76.00 266.98 77.04
  C 264.90 77.66 264.36 80.98 264.31 82.75
  Q 264.14 89.17 264.34 95.05
  Q 264.39 96.46 262.99 96.45
  L 259.13 96.42
  Q 257.86 96.41 257.86 95.13
  L 257.88 72.05
  Q 257.88 70.98 258.95 71.00
  L 262.52 71.05
  A 1.33 1.30 72.3 0 1 263.57 71.61
  L 264.24 72.57
  Q 264.59 73.07 265.15 72.82
  Z"
/>
<path fill="#ef2772" d="
  M 363.58 90.22
  A 2.16 2.15 26.3 0 0 362.44 86.87
  C 359.56 86.04 353.46 84.46 352.36 81.75
  C 350.94 78.28 351.55 74.16 354.97 72.28
  Q 362.16 68.33 369.06 73.78
  Q 370.41 74.84 369.55 76.32
  Q 369.02 77.23 367.90 77.94
  Q 366.78 78.66 365.63 77.99
  L 362.43 76.10
  Q 360.34 74.88 358.54 76.49
  L 358.29 76.71
  Q 356.56 78.25 358.71 79.11
  C 361.73 80.32 369.23 82.21 369.83 86.01
  C 370.87 92.58 367.67 96.52 361.31 96.88
  C 357.43 97.09 351.72 95.17 350.54 91.00
  Q 350.39 90.45 350.71 89.98
  Q 351.95 88.15 353.93 88.10
  Q 354.48 88.09 354.88 88.46
  Q 355.87 89.40 356.81 90.48
  C 358.54 92.49 362.18 92.12 363.58 90.22
  Z"
/>
<path fill="#ef2772" d="
  M 378.21 86.38
  Q 377.97 87.55 378.69 88.57
  C 381.70 92.76 386.01 91.32 389.75 89.34
  Q 390.26 89.07 390.80 89.26
  Q 392.95 90.02 393.59 92.27
  Q 393.89 93.29 393.03 93.92
  Q 386.25 98.93 378.29 95.59
  Q 373.36 93.52 372.02 88.50
  C 366.53 67.95 395.41 63.19 395.50 84.33
  A 1.52 1.52 0.0 0 1 393.97 85.86
  L 378.98 85.76
  A 0.79 0.78 5.9 0 0 378.21 86.38
  Z
  M 378.35 81.21
  L 388.85 81.29
  A 0.13 0.13 0.0 0 0 388.98 81.16
  L 388.98 81.10
  A 5.26 5.01 0.4 0 0 383.76 76.05
  L 383.52 76.05
  A 5.26 5.01 0.4 0 0 378.22 81.02
  L 378.22 81.08
  A 0.13 0.13 0.0 0 0 378.35 81.21
  Z"
/>
<path fill="#ef2772" d="
  M 403.09 76.70
  A 1.49 1.49 0.0 0 0 403.69 79.20
  Q 408.42 80.64 412.24 82.80
  Q 414.68 84.19 415.00 86.87
  Q 415.91 94.35 408.98 96.41
  Q 401.96 98.50 396.31 92.88
  A 2.36 2.35 -63.0 0 1 395.65 90.84
  Q 395.85 89.60 396.74 88.81
  Q 398.43 87.31 400.13 88.80
  C 401.69 90.16 402.66 91.83 404.98 91.80
  Q 407.15 91.77 408.27 90.47
  A 2.32 2.32 0.0 0 0 407.05 86.71
  Q 402.29 85.55 398.25 83.18
  A 1.55 1.50 5.5 0 1 397.57 82.38
  Q 394.51 74.13 401.66 71.36
  Q 407.76 69.00 413.89 73.70
  C 415.31 74.79 415.01 76.71 413.40 77.58
  C 409.34 79.79 406.70 73.25 403.09 76.70
  Z"
/>
<path fill="#ef2772" d="
  M 509.64 76.37
  Q 509.44 76.48 509.31 76.66
  Q 508.06 78.31 509.98 79.09
  C 515.24 81.20 522.89 82.63 521.16 90.37
  Q 520.18 94.78 515.76 96.24
  Q 508.65 98.60 502.84 93.20
  A 2.47 2.45 16.2 0 1 502.10 91.86
  Q 501.70 89.78 502.79 88.81
  Q 504.74 87.09 506.57 88.93
  C 509.10 91.47 510.97 93.29 514.52 90.54
  A 1.82 1.82 0.0 0 0 515.15 88.59
  C 514.09 85.01 504.70 86.26 503.16 80.93
  C 499.96 69.89 516.41 67.41 521.13 75.26
  A 0.90 0.89 -42.3 0 1 521.08 76.27
  C 518.39 79.82 516.02 77.42 513.25 76.11
  Q 511.55 75.29 509.64 76.37
  Z"
/>
<path fill="#ffffff" d="
  M 238.46 81.19
  A 0.11 0.11 0.0 0 1 238.35 81.08
  L 238.35 81.01
  A 5.40 4.92 0.1 0 1 243.75 76.10
  L 243.93 76.10
  A 5.40 4.92 0.1 0 1 249.33 81.03
  L 249.33 81.10
  A 0.11 0.11 0.0 0 1 249.22 81.21
  L 238.46 81.19
  Z"
/>
<path fill="#ffffff" d="
  M 333.32 81.19
  A 0.13 0.13 0.0 0 1 333.19 81.06
  L 333.19 81.00
  A 5.28 4.95 0.4 0 1 338.51 76.09
  L 338.85 76.09
  A 5.28 4.95 0.4 0 1 344.09 81.08
  L 344.09 81.14
  A 0.13 0.13 0.0 0 1 343.96 81.27
  L 333.32 81.19
  Z"
/>
<path fill="#ffffff" d="
  M 378.35 81.21
  A 0.13 0.13 0.0 0 1 378.22 81.08
  L 378.22 81.02
  A 5.26 5.01 0.4 0 1 383.52 76.05
  L 383.76 76.05
  A 5.26 5.01 0.4 0 1 388.98 81.10
  L 388.98 81.16
  A 0.13 0.13 0.0 0 1 388.85 81.29
  L 378.35 81.21
  Z"
/>
<rect fill="#ffffff" x="-5.92" y="-7.27" transform="translate(489.02,83.82) rotate(-1.7)" width="11.84" height="14.54" rx="5.44"/>
<rect fill="#f14e8c" x="-11.34" y="-3.77" transform="translate(88.28,87.90) rotate(-0.2)" width="22.68" height="7.54" rx="2.83"/>
<path fill="#ffffff" d="
  M 200.99 91.47
  C 195.07 93.24 193.49 86.00 198.85 85.88
  Q 202.04 85.81 204.98 85.94
  Q 205.60 85.96 205.54 86.58
  Q 205.20 90.21 200.99 91.47
  Z"
/>
<path fill="#ffffff" d="
  M 466.24 86.08
  A 0.77 0.76 -73.6 0 1 466.82 87.15
  Q 464.64 91.97 459.76 91.62
  C 456.21 91.37 455.36 86.89 459.03 86.15
  Q 462.38 85.47 466.24 86.08
  Z"
/>
<rect fill="#ef2772" x="-3.48" y="-11.95" transform="translate(88.24,104.87) rotate(0.1)" width="6.96" height="23.90" rx="3.36"/>
</svg>
